<?xml version="1.0" encoding="UTF-8" standalone="no"?>
<!-- Created with Inkscape (http://www.inkscape.org/) -->

<svg
   xmlns:dc="http://purl.org/dc/elements/1.1/"
   xmlns:cc="http://creativecommons.org/ns#"
   xmlns:rdf="http://www.w3.org/1999/02/22-rdf-syntax-ns#"
   xmlns:svg="http://www.w3.org/2000/svg"
   xmlns="http://www.w3.org/2000/svg"
   xmlns:sodipodi="http://sodipodi.sourceforge.net/DTD/sodipodi-0.dtd"
   xmlns:inkscape="http://www.inkscape.org/namespaces/inkscape"
   width="28"
   height="20"
   viewBox="0 0 28 20"
   id="svg3387"
   version="1.1"
   inkscape:version="0.91 r13725"
   sodipodi:docname="hamburger_icon.svg">
  <defs
     id="defs3389" />
  <sodipodi:namedview
     id="base"
     pagecolor="#ffffff"
     bordercolor="#666666"
     borderopacity="1.0"
     inkscape:pageopacity="0.0"
     inkscape:pageshadow="2"
     inkscape:zoom="14.481547"
     inkscape:cx="15.227426"
     inkscape:cy="9.0048641"
     inkscape:document-units="px"
     inkscape:current-layer="layer1"
     showgrid="false"
     units="px"
     inkscape:window-width="1920"
     inkscape:window-height="1033"
     inkscape:window-x="0"
     inkscape:window-y="0"
     inkscape:window-maximized="1" />
  <metadata
     id="metadata3392">
    <rdf:RDF>
      <cc:Work
         rdf:about="">
        <dc:format>image/svg+xml</dc:format>
        <dc:type
           rdf:resource="http://purl.org/dc/dcmitype/StillImage" />
        <dc:title></dc:title>
      </cc:Work>
    </rdf:RDF>
  </metadata>
  <g
     inkscape:label="Ebene 1"
     inkscape:groupmode="layer"
     id="layer1"
     transform="translate(0,-1032.3622)">
    <path
       inkscape:connector-curvature="0"
       d="m 2,1036.3622 24,0 c 1.104,0 2,-0.896 2,-2 0,-1.104 -0.896,-2 -2,-2 l -24,0 c -1.104,0 -2,0.896 -2,2 0,1.104 0.896,2 2,2 z m 24,4 -24,0 c -1.104,0 -2,0.896 -2,2 0,1.104 0.896,2 2,2 l 24,0 c 1.104,0 2,-0.896 2,-2 0,-1.104 -0.896,-2 -2,-2 z m 0,8 -24,0 c -1.104,0 -2,0.896 -2,2 0,1.104 0.896,2 2,2 l 24,0 c 1.104,0 2,-0.896 2,-2 0,-1.104 -0.896,-2 -2,-2 z"
       id="path3"
       style="fill:#063868;fill-opacity:1" />
  </g>
</svg>
